<svg xmlns="http://www.w3.org/2000/svg" viewBox="0 0 440 78" role="presentation">
<g fill="none" stroke="#0d0d0c" stroke-linejoin="round" stroke-linecap="round">
<rect x="46" y="12" width="348" height="54" stroke-width="0.85"/>
<rect x="49.6" y="15.6" width="340.8" height="46.8" stroke-width="0.42" opacity="0.75"/>
<path d="M14 12L44 12" stroke-width="0.5" opacity="0.85"/>
<path d="M396 12L426 12" stroke-width="0.5" opacity="0.85"/>
<circle cx="12" cy="12" r="1.3" fill="#0d0d0c" stroke="none"/>
<circle cx="428" cy="12" r="1.3" fill="#0d0d0c" stroke="none"/>
<path d="M14 66L44 66" stroke-width="0.5" opacity="0.85"/>
<path d="M396 66L426 66" stroke-width="0.5" opacity="0.85"/>
<circle cx="12" cy="66" r="1.3" fill="#0d0d0c" stroke="none"/>
<circle cx="428" cy="66" r="1.3" fill="#0d0d0c" stroke="none"/>
<g transform="translate(46 12) scale(1 1)"><path d="M26.99 3.1L26.48 3.01L25.98 2.96L25.48 2.93L24.98 2.91L24.49 2.91L24.01 2.91L23.53 2.92L23.05 2.93L22.58 2.96L22.11 2.99L21.65 3.03L21.19 3.07L20.73 3.12L20.28 3.18L19.83 3.24L19.39 3.31L18.95 3.39L18.52 3.48L18.09 3.57L17.67 3.66L17.25 3.76L16.84 3.87L16.43 3.99L16.02 4.11L15.62 4.24L15.23 4.37L14.84 4.51L14.45 4.66L14.07 4.81L13.7 4.97L13.33 5.14L12.96 5.31L12.6 5.48L12.25 5.67L11.9 5.86L11.56 6.05L11.22 6.25L10.89 6.46L10.57 6.67L10.25 6.89L9.93 7.12L9.63 7.35L9.33 7.58L9.03 7.82L8.74 8.07L8.46 8.32L8.18 8.58L7.91 8.84L7.65 9.11L7.4 9.38L7.15 9.66L6.9 9.94L6.67 10.22L6.44 10.51L6.22 10.81L6 11.11L5.8 11.41L5.6 11.72L5.4 12.03L5.22 12.34L5.04 12.66L4.86 12.99L4.7 13.31L4.54 13.64L4.39 13.97L4.25 14.31L4.11 14.64L3.99 14.98L3.86 15.33L3.75 15.67L3.64 16.02L3.54 16.37L3.45 16.72L3.37 17.08L3.29 17.44L3.22 17.8L3.15 18.16L3.1 18.52L3.05 18.88L3.01 19.25L2.97 19.62L2.94 19.98L2.92 20.35L2.91 20.73L2.91 21.1L2.92 21.47L2.93 21.85L2.96 22.23L3.01 22.61L3.1 22.99L3.3 23.01L3.48 22.66L3.62 22.32L3.75 21.97L3.88 21.63L4.01 21.3L4.14 20.97L4.27 20.64L4.4 20.31L4.54 19.99L4.67 19.68L4.81 19.37L4.95 19.06L5.09 18.75L5.24 18.45L5.39 18.16L5.54 17.87L5.69 17.58L5.85 17.29L6.01 17.01L6.17 16.73L6.33 16.46L6.5 16.19L6.67 15.92L6.84 15.66L7.01 15.4L7.19 15.14L7.37 14.89L7.55 14.64L7.74 14.39L7.93 14.14L8.12 13.9L8.31 13.66L8.51 13.43L8.7 13.19L8.91 12.96L9.11 12.73L9.32 12.51L9.53 12.28L9.75 12.06L9.97 11.84L10.19 11.63L10.41 11.41L10.64 11.2L10.87 10.99L11.11 10.78L11.35 10.57L11.59 10.37L11.84 10.17L12.09 9.97L12.35 9.77L12.61 9.57L12.87 9.37L13.14 9.18L13.42 8.99L13.69 8.8L13.98 8.61L14.27 8.42L14.56 8.24L14.86 8.06L15.16 7.87L15.47 7.69L15.79 7.52L16.1 7.34L16.43 7.17L16.76 7L17.1 6.83L17.44 6.66L17.79 6.49L18.14 6.33L18.5 6.17L18.87 6.01L19.24 5.85L19.62 5.7L20 5.55L20.39 5.39L20.79 5.25L21.19 5.1L21.6 4.96L22.01 4.82L22.44 4.68L22.86 4.54L23.3 4.41L23.74 4.27L24.19 4.14L24.64 4.01L25.1 3.88L25.57 3.75L26.04 3.62L26.52 3.48L27.01 3.3Z" fill="#0d0d0c" stroke="none"/><path d="M27.04 4.15L27.86 4.08L28.67 4.01L29.48 3.94L30.28 3.88L31.07 3.81L31.86 3.75L32.64 3.69L33.42 3.63L34.19 3.57L34.96 3.51L35.73 3.45L36.49 3.4L37.25 3.35L38 3.29L38.76 3.24L39.51 3.19L40.26 3.14L41.01 3.1L41.76 3.05L42.51 3.01L43.26 2.96L44.01 2.92L44.76 2.88L45.51 2.84L46.26 2.8L47.02 2.76L47.78 2.72L48.54 2.69L49.3 2.65L50.07 2.62L50.84 2.58L51.61 2.55L52.39 2.52L53.17 2.49L53.96 2.47L54.76 2.44L55.56 2.41L56.37 2.39L57.18 2.37L58 2.35L58 2.25L57.18 2.26L56.36 2.27L55.56 2.28L54.75 2.28L53.96 2.29L53.17 2.29L52.38 2.29L51.61 2.29L50.83 2.29L50.06 2.29L49.29 2.29L48.53 2.29L47.77 2.29L47.01 2.29L46.25 2.28L45.5 2.28L44.74 2.28L43.99 2.28L43.24 2.27L42.49 2.27L41.74 2.27L40.99 2.26L40.24 2.26L39.48 2.26L38.73 2.25L37.97 2.25L37.21 2.25L36.45 2.25L35.68 2.24L34.91 2.24L34.14 2.24L33.37 2.24L32.58 2.24L31.8 2.24L31.01 2.24L30.21 2.24L29.41 2.24L28.6 2.24L27.78 2.25L26.96 2.25Z" fill="#0d0d0c" stroke="none"/><path d="M27.21 4.43L27.52 4.36L27.82 4.29L28.12 4.24L28.41 4.19L28.7 4.16L28.98 4.13L29.25 4.11L29.51 4.1L29.77 4.1L30.02 4.11L30.27 4.12L30.51 4.15L30.74 4.18L30.96 4.21L31.17 4.25L31.38 4.3L31.58 4.36L31.77 4.42L31.95 4.48L32.12 4.55L32.29 4.63L32.44 4.71L32.59 4.79L32.73 4.88L32.86 4.97L32.98 5.06L33.09 5.16L33.19 5.26L33.28 5.36L33.36 5.47L33.44 5.58L33.5 5.69L33.56 5.81L33.6 5.93L33.64 6.05L33.66 6.17L33.68 6.3L33.68 6.43L33.67 6.57L33.65 6.71L33.62 6.85L33.57 7L33.51 7.15L33.43 7.3L33.34 7.45L33.22 7.6L33.1 7.76L32.95 7.91L32.79 8.06L32.62 8.2L32.42 8.35L32.21 8.49L31.98 8.62L31.73 8.75L31.81 8.93L32.08 8.81L32.32 8.69L32.56 8.57L32.78 8.44L32.99 8.31L33.18 8.17L33.36 8.03L33.53 7.88L33.68 7.73L33.82 7.58L33.95 7.42L34.06 7.25L34.16 7.08L34.25 6.91L34.32 6.73L34.38 6.55L34.42 6.36L34.45 6.17L34.46 5.98L34.45 5.78L34.44 5.59L34.4 5.39L34.35 5.2L34.29 5.01L34.21 4.82L34.11 4.63L34.01 4.44L33.88 4.26L33.75 4.08L33.6 3.91L33.44 3.74L33.27 3.58L33.08 3.42L32.88 3.27L32.67 3.13L32.45 2.99L32.22 2.86L31.98 2.73L31.73 2.61L31.46 2.5L31.19 2.4L30.91 2.31L30.61 2.23L30.31 2.15L30 2.08L29.68 2.03L29.34 1.98L29 1.95L28.66 1.92L28.3 1.91L27.93 1.9L27.56 1.91L27.18 1.93L26.79 1.97Z" fill="#0d0d0c" stroke="none"/><path d="M4.44 22.87L4.39 22.55L4.34 22.25L4.3 21.94L4.28 21.65L4.26 21.36L4.25 21.08L4.25 20.81L4.25 20.55L4.27 20.29L4.29 20.04L4.32 19.79L4.36 19.56L4.4 19.33L4.45 19.11L4.5 18.9L4.56 18.69L4.63 18.5L4.7 18.31L4.78 18.14L4.86 17.97L4.94 17.81L5.03 17.66L5.12 17.52L5.22 17.38L5.32 17.26L5.42 17.15L5.52 17.04L5.63 16.95L5.74 16.86L5.85 16.79L5.96 16.72L6.08 16.66L6.2 16.61L6.32 16.57L6.44 16.54L6.57 16.53L6.7 16.52L6.83 16.52L6.96 16.54L7.1 16.57L7.24 16.61L7.39 16.67L7.53 16.74L7.68 16.83L7.82 16.93L7.97 17.05L8.11 17.19L8.26 17.34L8.39 17.51L8.53 17.69L8.66 17.9L8.79 18.12L8.91 18.36L9.02 18.61L9.21 18.54L9.11 18.27L9 18.01L8.89 17.77L8.78 17.54L8.66 17.33L8.53 17.13L8.4 16.94L8.27 16.77L8.13 16.6L7.98 16.45L7.83 16.32L7.67 16.2L7.51 16.09L7.34 15.99L7.16 15.91L6.98 15.84L6.8 15.78L6.61 15.75L6.42 15.72L6.23 15.71L6.03 15.72L5.83 15.74L5.64 15.78L5.44 15.83L5.24 15.9L5.05 15.99L4.86 16.08L4.67 16.19L4.49 16.32L4.3 16.45L4.13 16.6L3.95 16.77L3.79 16.94L3.62 17.13L3.47 17.33L3.31 17.54L3.17 17.77L3.03 18L2.9 18.25L2.77 18.5L2.66 18.77L2.55 19.05L2.44 19.33L2.35 19.63L2.27 19.94L2.19 20.26L2.13 20.59L2.07 20.92L2.02 21.27L1.99 21.63L1.96 21.99L1.95 22.36L1.95 22.74L1.96 23.13Z" fill="#0d0d0c" stroke="none"/><path d="M10 10C10.55 5.8 7.17 2.97 3.44 2.04C3.78 5.76 5.96 9.58 10 10Z" fill="#f5f6f4" stroke-width="0.72"/><path d="M10 10Q6.96 5.82 3.44 2.04" stroke-width="0.5"/><g stroke-linecap="round"><path d="M9.08 9.09L8.63 9.46" stroke-width="0.28" opacity="0.7"/><path d="M8.78 8.78L8.19 9.26" stroke-width="0.28" opacity="0.7"/><path d="M8.48 8.47L7.76 9.06" stroke-width="0.28" opacity="0.7"/><path d="M8.18 8.16L7.35 8.84" stroke-width="0.28" opacity="0.7"/><path d="M7.88 7.85L6.95 8.61" stroke-width="0.28" opacity="0.7"/><path d="M7.59 7.53L6.57 8.37" stroke-width="0.28" opacity="0.7"/><path d="M7.3 7.21L6.21 8.1" stroke-width="0.28" opacity="0.7"/><path d="M7.02 6.89L5.88 7.82" stroke-width="0.28" opacity="0.7"/><path d="M6.74 6.56L5.57 7.52" stroke-width="0.28" opacity="0.7"/><path d="M6.46 6.23L5.29 7.2" stroke-width="0.28" opacity="0.7"/><path d="M6.19 5.9L5.02 6.86" stroke-width="0.28" opacity="0.7"/><path d="M5.92 5.56L4.79 6.5" stroke-width="0.28" opacity="0.7"/><path d="M5.66 5.22L4.57 6.11" stroke-width="0.28" opacity="0.7"/><path d="M5.4 4.87L4.38 5.71" stroke-width="0.28" opacity="0.7"/><path d="M5.15 4.53L4.21 5.3" stroke-width="0.28" opacity="0.7"/><path d="M4.9 4.18L4.06 4.86" stroke-width="0.28" opacity="0.7"/><path d="M4.65 3.82L3.93 4.41" stroke-width="0.28" opacity="0.7"/><path d="M4.4 3.47L3.81 3.95" stroke-width="0.28" opacity="0.7"/><path d="M4.16 3.11L3.71 3.48" stroke-width="0.28" opacity="0.7"/></g><path d="M13 6.6C16.09 7.62 18.71 5.49 19.95 2.8C17.09 2.52 13.9 3.62 13 6.6Z" fill="#f5f6f4" stroke-width="0.72"/><path d="M13 6.6Q16.59 4.91 19.95 2.8" stroke-width="0.5"/><g stroke-linecap="round"><path d="M13.82 6.04L13.61 5.65" stroke-width="0.28" opacity="0.7"/><path d="M14.1 5.85L13.82 5.34" stroke-width="0.28" opacity="0.7"/><path d="M14.37 5.67L14.03 5.05" stroke-width="0.28" opacity="0.7"/><path d="M14.65 5.49L14.25 4.77" stroke-width="0.28" opacity="0.7"/><path d="M14.93 5.31L14.48 4.5" stroke-width="0.28" opacity="0.7"/><path d="M15.21 5.14L14.72 4.25" stroke-width="0.28" opacity="0.7"/><path d="M15.49 4.97L14.97 4.02" stroke-width="0.28" opacity="0.7"/><path d="M15.78 4.8L15.24 3.81" stroke-width="0.28" opacity="0.7"/><path d="M16.06 4.64L15.51 3.62" stroke-width="0.28" opacity="0.7"/><path d="M16.35 4.48L15.79 3.45" stroke-width="0.28" opacity="0.7"/><path d="M16.64 4.32L16.09 3.3" stroke-width="0.28" opacity="0.7"/><path d="M16.94 4.17L16.39 3.18" stroke-width="0.28" opacity="0.7"/><path d="M17.23 4.02L16.71 3.07" stroke-width="0.28" opacity="0.7"/><path d="M17.53 3.87L17.04 2.99" stroke-width="0.28" opacity="0.7"/><path d="M17.83 3.73L17.38 2.92" stroke-width="0.28" opacity="0.7"/><path d="M18.13 3.59L17.73 2.87" stroke-width="0.28" opacity="0.7"/><path d="M18.43 3.46L18.09 2.83" stroke-width="0.28" opacity="0.7"/><path d="M18.73 3.32L18.45 2.81" stroke-width="0.28" opacity="0.7"/><path d="M19.03 3.19L18.82 2.8" stroke-width="0.28" opacity="0.7"/></g><path d="M6.6 13C9.77 12.29 10.92 9.1 10.6 6.16C8 7.4 5.83 9.98 6.6 13Z" fill="#f5f6f4" stroke-width="0.72"/><path d="M6.6 13Q8.39 9.46 10.6 6.16" stroke-width="0.5"/><g stroke-linecap="round"><path d="M7.02 12.1L6.63 11.87" stroke-width="0.28" opacity="0.7"/><path d="M7.16 11.8L6.65 11.5" stroke-width="0.28" opacity="0.7"/><path d="M7.3 11.5L6.68 11.14" stroke-width="0.28" opacity="0.7"/><path d="M7.44 11.2L6.73 10.78" stroke-width="0.28" opacity="0.7"/><path d="M7.59 10.9L6.79 10.44" stroke-width="0.28" opacity="0.7"/><path d="M7.74 10.61L6.87 10.1" stroke-width="0.28" opacity="0.7"/><path d="M7.89 10.32L6.96 9.77" stroke-width="0.28" opacity="0.7"/><path d="M8.05 10.03L7.08 9.46" stroke-width="0.28" opacity="0.7"/><path d="M8.21 9.74L7.21 9.15" stroke-width="0.28" opacity="0.7"/><path d="M8.38 9.45L7.37 8.86" stroke-width="0.28" opacity="0.7"/><path d="M8.55 9.17L7.55 8.58" stroke-width="0.28" opacity="0.7"/><path d="M8.72 8.89L7.74 8.32" stroke-width="0.28" opacity="0.7"/><path d="M8.89 8.61L7.96 8.06" stroke-width="0.28" opacity="0.7"/><path d="M9.07 8.33L8.2 7.82" stroke-width="0.28" opacity="0.7"/><path d="M9.26 8.05L8.46 7.59" stroke-width="0.28" opacity="0.7"/><path d="M9.44 7.78L8.73 7.36" stroke-width="0.28" opacity="0.7"/><path d="M9.63 7.51L9.02 7.15" stroke-width="0.28" opacity="0.7"/><path d="M9.82 7.24L9.32 6.94" stroke-width="0.28" opacity="0.7"/><path d="M10.01 6.97L9.63 6.74" stroke-width="0.28" opacity="0.7"/></g></g>
<g transform="translate(394 12) scale(-1 1)"><path d="M26.99 3.1L26.48 3.01L25.98 2.96L25.48 2.93L24.98 2.91L24.49 2.91L24.01 2.91L23.53 2.92L23.05 2.93L22.58 2.96L22.11 2.99L21.65 3.03L21.19 3.07L20.73 3.12L20.28 3.18L19.83 3.24L19.39 3.31L18.95 3.39L18.52 3.48L18.09 3.57L17.67 3.66L17.25 3.76L16.84 3.87L16.43 3.99L16.02 4.11L15.62 4.24L15.23 4.37L14.84 4.51L14.45 4.66L14.07 4.81L13.7 4.97L13.33 5.14L12.96 5.31L12.6 5.48L12.25 5.67L11.9 5.86L11.56 6.05L11.22 6.25L10.89 6.46L10.57 6.67L10.25 6.89L9.93 7.12L9.63 7.35L9.33 7.58L9.03 7.82L8.74 8.07L8.46 8.32L8.18 8.58L7.91 8.84L7.65 9.11L7.4 9.38L7.15 9.66L6.9 9.94L6.67 10.22L6.44 10.51L6.22 10.81L6 11.11L5.8 11.41L5.6 11.72L5.4 12.03L5.22 12.34L5.04 12.66L4.86 12.99L4.7 13.31L4.54 13.64L4.39 13.97L4.25 14.31L4.11 14.64L3.99 14.98L3.86 15.33L3.75 15.67L3.64 16.02L3.54 16.37L3.45 16.72L3.37 17.08L3.29 17.44L3.22 17.8L3.15 18.16L3.1 18.52L3.05 18.88L3.01 19.25L2.97 19.62L2.94 19.98L2.92 20.35L2.91 20.73L2.91 21.1L2.92 21.47L2.93 21.85L2.96 22.23L3.01 22.61L3.1 22.99L3.3 23.01L3.48 22.66L3.62 22.32L3.75 21.97L3.88 21.63L4.01 21.3L4.14 20.97L4.27 20.64L4.4 20.31L4.54 19.99L4.67 19.68L4.81 19.37L4.95 19.06L5.09 18.75L5.24 18.45L5.39 18.16L5.54 17.87L5.69 17.58L5.85 17.29L6.01 17.01L6.17 16.73L6.33 16.46L6.5 16.19L6.67 15.92L6.84 15.66L7.01 15.4L7.19 15.14L7.37 14.89L7.55 14.64L7.74 14.39L7.93 14.14L8.12 13.9L8.31 13.66L8.51 13.43L8.7 13.19L8.91 12.96L9.11 12.73L9.32 12.51L9.53 12.28L9.75 12.06L9.97 11.84L10.19 11.63L10.41 11.41L10.64 11.2L10.87 10.99L11.11 10.78L11.35 10.57L11.59 10.37L11.84 10.17L12.09 9.97L12.35 9.77L12.61 9.57L12.87 9.37L13.14 9.18L13.42 8.99L13.69 8.8L13.98 8.61L14.27 8.42L14.56 8.24L14.86 8.06L15.16 7.87L15.47 7.69L15.79 7.52L16.1 7.34L16.43 7.17L16.76 7L17.1 6.83L17.44 6.66L17.79 6.49L18.14 6.33L18.5 6.17L18.87 6.01L19.24 5.85L19.62 5.7L20 5.55L20.39 5.39L20.79 5.25L21.19 5.1L21.6 4.96L22.01 4.82L22.44 4.68L22.86 4.54L23.3 4.41L23.74 4.27L24.19 4.14L24.64 4.01L25.1 3.88L25.57 3.75L26.04 3.62L26.52 3.48L27.01 3.3Z" fill="#0d0d0c" stroke="none"/><path d="M27.04 4.15L27.86 4.08L28.67 4.01L29.48 3.94L30.28 3.88L31.07 3.81L31.86 3.75L32.64 3.69L33.42 3.63L34.19 3.57L34.96 3.51L35.73 3.45L36.49 3.4L37.25 3.35L38 3.29L38.76 3.24L39.51 3.19L40.26 3.14L41.01 3.1L41.76 3.05L42.51 3.01L43.26 2.96L44.01 2.92L44.76 2.88L45.51 2.84L46.26 2.8L47.02 2.76L47.78 2.72L48.54 2.69L49.3 2.65L50.07 2.62L50.84 2.58L51.61 2.55L52.39 2.52L53.17 2.49L53.96 2.47L54.76 2.44L55.56 2.41L56.37 2.39L57.18 2.37L58 2.35L58 2.25L57.18 2.26L56.36 2.27L55.56 2.28L54.75 2.28L53.96 2.29L53.17 2.29L52.38 2.29L51.61 2.29L50.83 2.29L50.06 2.29L49.29 2.29L48.53 2.29L47.77 2.29L47.01 2.29L46.25 2.28L45.5 2.28L44.74 2.28L43.99 2.28L43.24 2.27L42.49 2.27L41.74 2.27L40.99 2.26L40.24 2.26L39.48 2.26L38.73 2.25L37.97 2.25L37.21 2.25L36.45 2.25L35.68 2.24L34.91 2.24L34.14 2.24L33.37 2.24L32.58 2.24L31.8 2.24L31.01 2.24L30.21 2.24L29.41 2.24L28.6 2.24L27.78 2.25L26.96 2.25Z" fill="#0d0d0c" stroke="none"/><path d="M27.21 4.43L27.52 4.36L27.82 4.29L28.12 4.24L28.41 4.19L28.7 4.16L28.98 4.13L29.25 4.11L29.51 4.1L29.77 4.1L30.02 4.11L30.27 4.12L30.51 4.15L30.74 4.18L30.96 4.21L31.17 4.25L31.38 4.3L31.58 4.36L31.77 4.42L31.95 4.48L32.12 4.55L32.29 4.63L32.44 4.71L32.59 4.79L32.73 4.88L32.86 4.97L32.98 5.06L33.09 5.16L33.19 5.26L33.28 5.36L33.36 5.47L33.44 5.58L33.5 5.69L33.56 5.81L33.6 5.93L33.64 6.05L33.66 6.17L33.68 6.3L33.68 6.43L33.67 6.57L33.65 6.71L33.62 6.85L33.57 7L33.51 7.15L33.43 7.3L33.34 7.45L33.22 7.6L33.1 7.76L32.95 7.91L32.79 8.06L32.62 8.2L32.42 8.35L32.21 8.49L31.98 8.62L31.73 8.75L31.81 8.93L32.08 8.81L32.32 8.69L32.56 8.57L32.78 8.44L32.99 8.31L33.18 8.17L33.36 8.03L33.53 7.88L33.68 7.73L33.82 7.58L33.95 7.42L34.06 7.25L34.16 7.08L34.25 6.91L34.32 6.73L34.38 6.55L34.42 6.36L34.45 6.17L34.46 5.98L34.45 5.78L34.44 5.59L34.4 5.39L34.35 5.2L34.29 5.01L34.21 4.82L34.11 4.63L34.01 4.44L33.88 4.26L33.75 4.08L33.6 3.91L33.44 3.74L33.27 3.58L33.08 3.42L32.88 3.27L32.67 3.13L32.45 2.99L32.22 2.86L31.98 2.73L31.73 2.61L31.46 2.5L31.19 2.4L30.91 2.31L30.61 2.23L30.31 2.15L30 2.08L29.68 2.03L29.34 1.98L29 1.95L28.66 1.92L28.3 1.91L27.93 1.9L27.56 1.91L27.18 1.93L26.79 1.97Z" fill="#0d0d0c" stroke="none"/><path d="M4.44 22.87L4.39 22.55L4.34 22.25L4.3 21.94L4.28 21.65L4.26 21.36L4.25 21.08L4.25 20.81L4.25 20.55L4.27 20.29L4.29 20.04L4.32 19.79L4.36 19.56L4.4 19.33L4.45 19.11L4.5 18.9L4.56 18.69L4.63 18.5L4.7 18.31L4.78 18.14L4.86 17.97L4.94 17.81L5.03 17.66L5.12 17.52L5.22 17.38L5.32 17.26L5.42 17.15L5.52 17.04L5.63 16.95L5.74 16.86L5.85 16.79L5.96 16.72L6.08 16.66L6.2 16.61L6.32 16.57L6.44 16.54L6.57 16.53L6.7 16.52L6.83 16.52L6.96 16.54L7.1 16.57L7.24 16.61L7.39 16.67L7.53 16.74L7.68 16.83L7.82 16.93L7.97 17.05L8.11 17.19L8.26 17.34L8.39 17.51L8.53 17.69L8.66 17.9L8.79 18.12L8.91 18.36L9.02 18.61L9.21 18.54L9.11 18.27L9 18.01L8.89 17.77L8.78 17.54L8.66 17.33L8.53 17.13L8.4 16.94L8.27 16.77L8.13 16.6L7.98 16.45L7.83 16.32L7.67 16.2L7.51 16.09L7.34 15.99L7.16 15.91L6.98 15.84L6.8 15.78L6.61 15.75L6.42 15.72L6.23 15.71L6.03 15.72L5.83 15.74L5.64 15.78L5.44 15.83L5.24 15.9L5.05 15.99L4.86 16.08L4.67 16.19L4.49 16.32L4.3 16.45L4.13 16.6L3.95 16.77L3.79 16.94L3.62 17.13L3.47 17.33L3.31 17.54L3.17 17.77L3.03 18L2.9 18.25L2.77 18.5L2.66 18.77L2.55 19.05L2.44 19.33L2.35 19.63L2.27 19.94L2.19 20.26L2.13 20.59L2.07 20.92L2.02 21.27L1.99 21.63L1.96 21.99L1.95 22.36L1.95 22.74L1.96 23.13Z" fill="#0d0d0c" stroke="none"/><path d="M10 10C10.55 5.8 7.17 2.97 3.44 2.04C3.78 5.76 5.96 9.58 10 10Z" fill="#f5f6f4" stroke-width="0.72"/><path d="M10 10Q6.96 5.82 3.44 2.04" stroke-width="0.5"/><g stroke-linecap="round"><path d="M9.08 9.09L8.63 9.46" stroke-width="0.28" opacity="0.7"/><path d="M8.78 8.78L8.19 9.26" stroke-width="0.28" opacity="0.7"/><path d="M8.48 8.47L7.76 9.06" stroke-width="0.28" opacity="0.7"/><path d="M8.18 8.16L7.35 8.84" stroke-width="0.28" opacity="0.7"/><path d="M7.88 7.85L6.95 8.61" stroke-width="0.28" opacity="0.7"/><path d="M7.59 7.53L6.57 8.37" stroke-width="0.28" opacity="0.7"/><path d="M7.3 7.21L6.21 8.1" stroke-width="0.28" opacity="0.7"/><path d="M7.02 6.89L5.88 7.82" stroke-width="0.28" opacity="0.7"/><path d="M6.74 6.56L5.57 7.52" stroke-width="0.28" opacity="0.7"/><path d="M6.46 6.23L5.29 7.2" stroke-width="0.28" opacity="0.7"/><path d="M6.19 5.9L5.02 6.86" stroke-width="0.28" opacity="0.7"/><path d="M5.92 5.56L4.79 6.5" stroke-width="0.28" opacity="0.7"/><path d="M5.66 5.22L4.57 6.11" stroke-width="0.28" opacity="0.7"/><path d="M5.4 4.87L4.38 5.71" stroke-width="0.28" opacity="0.7"/><path d="M5.15 4.53L4.21 5.3" stroke-width="0.28" opacity="0.7"/><path d="M4.9 4.18L4.06 4.86" stroke-width="0.28" opacity="0.7"/><path d="M4.65 3.82L3.93 4.41" stroke-width="0.28" opacity="0.7"/><path d="M4.4 3.47L3.81 3.95" stroke-width="0.28" opacity="0.7"/><path d="M4.16 3.11L3.71 3.48" stroke-width="0.28" opacity="0.7"/></g><path d="M13 6.6C16.09 7.62 18.71 5.49 19.95 2.8C17.09 2.52 13.9 3.62 13 6.6Z" fill="#f5f6f4" stroke-width="0.72"/><path d="M13 6.6Q16.59 4.91 19.95 2.8" stroke-width="0.5"/><g stroke-linecap="round"><path d="M13.82 6.04L13.61 5.65" stroke-width="0.28" opacity="0.7"/><path d="M14.1 5.85L13.82 5.34" stroke-width="0.28" opacity="0.7"/><path d="M14.37 5.67L14.03 5.05" stroke-width="0.28" opacity="0.7"/><path d="M14.65 5.49L14.25 4.77" stroke-width="0.28" opacity="0.7"/><path d="M14.93 5.31L14.48 4.5" stroke-width="0.28" opacity="0.7"/><path d="M15.21 5.14L14.72 4.25" stroke-width="0.28" opacity="0.7"/><path d="M15.49 4.97L14.97 4.02" stroke-width="0.28" opacity="0.7"/><path d="M15.78 4.8L15.24 3.81" stroke-width="0.28" opacity="0.7"/><path d="M16.06 4.64L15.51 3.62" stroke-width="0.28" opacity="0.7"/><path d="M16.35 4.48L15.79 3.45" stroke-width="0.28" opacity="0.7"/><path d="M16.64 4.32L16.09 3.3" stroke-width="0.28" opacity="0.7"/><path d="M16.94 4.17L16.39 3.18" stroke-width="0.28" opacity="0.7"/><path d="M17.23 4.02L16.71 3.07" stroke-width="0.28" opacity="0.7"/><path d="M17.53 3.87L17.04 2.99" stroke-width="0.28" opacity="0.7"/><path d="M17.83 3.73L17.38 2.92" stroke-width="0.28" opacity="0.7"/><path d="M18.13 3.59L17.73 2.87" stroke-width="0.28" opacity="0.7"/><path d="M18.43 3.46L18.09 2.83" stroke-width="0.28" opacity="0.7"/><path d="M18.73 3.32L18.45 2.81" stroke-width="0.28" opacity="0.7"/><path d="M19.03 3.19L18.82 2.8" stroke-width="0.28" opacity="0.7"/></g><path d="M6.6 13C9.77 12.29 10.92 9.1 10.6 6.16C8 7.4 5.83 9.98 6.6 13Z" fill="#f5f6f4" stroke-width="0.72"/><path d="M6.6 13Q8.39 9.46 10.6 6.16" stroke-width="0.5"/><g stroke-linecap="round"><path d="M7.02 12.1L6.63 11.87" stroke-width="0.28" opacity="0.7"/><path d="M7.16 11.8L6.65 11.5" stroke-width="0.28" opacity="0.7"/><path d="M7.3 11.5L6.68 11.14" stroke-width="0.28" opacity="0.7"/><path d="M7.44 11.2L6.73 10.78" stroke-width="0.28" opacity="0.7"/><path d="M7.59 10.9L6.79 10.44" stroke-width="0.28" opacity="0.7"/><path d="M7.74 10.61L6.87 10.1" stroke-width="0.28" opacity="0.7"/><path d="M7.89 10.32L6.96 9.77" stroke-width="0.28" opacity="0.7"/><path d="M8.05 10.03L7.08 9.46" stroke-width="0.28" opacity="0.7"/><path d="M8.21 9.74L7.21 9.15" stroke-width="0.28" opacity="0.7"/><path d="M8.38 9.45L7.37 8.86" stroke-width="0.28" opacity="0.7"/><path d="M8.55 9.17L7.55 8.58" stroke-width="0.28" opacity="0.7"/><path d="M8.72 8.89L7.74 8.32" stroke-width="0.28" opacity="0.7"/><path d="M8.89 8.61L7.96 8.06" stroke-width="0.28" opacity="0.7"/><path d="M9.07 8.33L8.2 7.82" stroke-width="0.28" opacity="0.7"/><path d="M9.26 8.05L8.46 7.59" stroke-width="0.28" opacity="0.7"/><path d="M9.44 7.78L8.73 7.36" stroke-width="0.28" opacity="0.7"/><path d="M9.63 7.51L9.02 7.15" stroke-width="0.28" opacity="0.7"/><path d="M9.82 7.24L9.32 6.94" stroke-width="0.28" opacity="0.7"/><path d="M10.01 6.97L9.63 6.74" stroke-width="0.28" opacity="0.7"/></g></g>
<g transform="translate(46 66) scale(1 -1)"><path d="M26.99 3.1L26.48 3.01L25.98 2.96L25.48 2.93L24.98 2.91L24.49 2.91L24.01 2.91L23.53 2.92L23.05 2.93L22.58 2.96L22.11 2.99L21.65 3.03L21.19 3.07L20.73 3.12L20.28 3.18L19.83 3.24L19.39 3.31L18.95 3.39L18.52 3.48L18.09 3.57L17.67 3.66L17.25 3.76L16.84 3.87L16.43 3.99L16.02 4.11L15.62 4.24L15.23 4.37L14.84 4.51L14.45 4.66L14.07 4.81L13.7 4.97L13.33 5.14L12.96 5.31L12.6 5.48L12.25 5.67L11.9 5.86L11.56 6.05L11.22 6.25L10.89 6.46L10.57 6.67L10.25 6.89L9.93 7.12L9.63 7.35L9.33 7.58L9.03 7.82L8.74 8.07L8.46 8.32L8.18 8.58L7.91 8.84L7.65 9.11L7.4 9.38L7.15 9.66L6.9 9.94L6.67 10.22L6.44 10.51L6.22 10.81L6 11.11L5.8 11.41L5.6 11.72L5.4 12.03L5.22 12.34L5.04 12.66L4.86 12.99L4.7 13.31L4.54 13.64L4.39 13.97L4.25 14.31L4.11 14.64L3.99 14.98L3.86 15.33L3.75 15.67L3.64 16.02L3.54 16.37L3.45 16.72L3.37 17.08L3.29 17.44L3.22 17.8L3.15 18.16L3.1 18.52L3.05 18.88L3.01 19.25L2.97 19.62L2.94 19.98L2.92 20.35L2.91 20.73L2.91 21.1L2.92 21.47L2.93 21.85L2.96 22.23L3.01 22.61L3.1 22.99L3.3 23.01L3.48 22.66L3.62 22.32L3.75 21.97L3.88 21.63L4.01 21.3L4.14 20.97L4.27 20.64L4.4 20.31L4.54 19.99L4.67 19.68L4.81 19.37L4.95 19.06L5.09 18.75L5.24 18.45L5.39 18.16L5.54 17.87L5.69 17.58L5.85 17.29L6.01 17.01L6.17 16.73L6.33 16.46L6.5 16.19L6.67 15.92L6.84 15.66L7.01 15.4L7.19 15.14L7.37 14.89L7.55 14.64L7.74 14.39L7.93 14.14L8.12 13.9L8.31 13.66L8.51 13.43L8.7 13.19L8.91 12.96L9.11 12.73L9.32 12.51L9.53 12.28L9.75 12.06L9.97 11.84L10.19 11.63L10.41 11.41L10.64 11.2L10.87 10.99L11.11 10.78L11.35 10.57L11.59 10.37L11.84 10.17L12.09 9.97L12.35 9.77L12.61 9.57L12.87 9.37L13.14 9.18L13.42 8.99L13.69 8.8L13.98 8.61L14.27 8.42L14.56 8.24L14.86 8.06L15.16 7.87L15.47 7.69L15.79 7.52L16.1 7.34L16.43 7.17L16.76 7L17.1 6.83L17.44 6.66L17.79 6.49L18.14 6.33L18.5 6.17L18.87 6.01L19.24 5.85L19.62 5.7L20 5.55L20.39 5.39L20.79 5.25L21.19 5.1L21.6 4.96L22.01 4.82L22.44 4.68L22.86 4.54L23.3 4.41L23.74 4.27L24.19 4.14L24.64 4.01L25.1 3.88L25.57 3.75L26.04 3.62L26.52 3.48L27.01 3.3Z" fill="#0d0d0c" stroke="none"/><path d="M27.04 4.15L27.86 4.08L28.67 4.01L29.48 3.94L30.28 3.88L31.07 3.81L31.86 3.75L32.64 3.69L33.42 3.63L34.19 3.57L34.96 3.51L35.73 3.45L36.49 3.4L37.25 3.35L38 3.29L38.76 3.24L39.51 3.19L40.26 3.14L41.01 3.1L41.76 3.05L42.51 3.01L43.26 2.96L44.01 2.92L44.76 2.88L45.51 2.84L46.26 2.8L47.02 2.76L47.78 2.72L48.54 2.69L49.3 2.65L50.07 2.62L50.84 2.58L51.61 2.55L52.39 2.52L53.17 2.49L53.96 2.47L54.76 2.44L55.56 2.41L56.37 2.39L57.18 2.37L58 2.35L58 2.25L57.18 2.26L56.36 2.27L55.56 2.28L54.75 2.28L53.96 2.29L53.17 2.29L52.38 2.29L51.61 2.29L50.83 2.29L50.06 2.29L49.29 2.29L48.53 2.29L47.77 2.29L47.01 2.29L46.25 2.28L45.5 2.28L44.74 2.28L43.99 2.28L43.24 2.27L42.49 2.27L41.74 2.27L40.99 2.26L40.24 2.26L39.48 2.26L38.73 2.25L37.97 2.25L37.21 2.25L36.45 2.25L35.68 2.24L34.91 2.24L34.14 2.24L33.37 2.24L32.58 2.24L31.8 2.24L31.01 2.24L30.21 2.24L29.41 2.24L28.6 2.24L27.78 2.25L26.96 2.25Z" fill="#0d0d0c" stroke="none"/><path d="M27.21 4.43L27.52 4.36L27.82 4.29L28.12 4.24L28.41 4.19L28.7 4.16L28.98 4.13L29.25 4.11L29.51 4.1L29.77 4.1L30.02 4.11L30.27 4.12L30.51 4.15L30.74 4.18L30.96 4.21L31.17 4.25L31.38 4.3L31.58 4.36L31.77 4.42L31.95 4.48L32.12 4.55L32.29 4.63L32.44 4.71L32.59 4.79L32.73 4.88L32.86 4.97L32.98 5.06L33.09 5.16L33.19 5.26L33.28 5.36L33.36 5.47L33.44 5.58L33.5 5.69L33.56 5.81L33.6 5.93L33.64 6.05L33.66 6.17L33.68 6.3L33.68 6.43L33.67 6.57L33.65 6.71L33.62 6.85L33.57 7L33.51 7.15L33.43 7.3L33.34 7.45L33.22 7.6L33.1 7.76L32.95 7.91L32.79 8.06L32.62 8.2L32.42 8.35L32.21 8.49L31.98 8.62L31.73 8.75L31.81 8.93L32.08 8.81L32.32 8.69L32.56 8.57L32.78 8.44L32.99 8.31L33.18 8.17L33.36 8.03L33.53 7.88L33.68 7.73L33.82 7.58L33.95 7.42L34.06 7.25L34.16 7.08L34.25 6.91L34.32 6.73L34.38 6.55L34.42 6.36L34.45 6.17L34.46 5.98L34.45 5.78L34.44 5.59L34.4 5.39L34.35 5.2L34.29 5.01L34.21 4.82L34.11 4.63L34.01 4.44L33.88 4.26L33.75 4.08L33.6 3.91L33.44 3.74L33.27 3.58L33.08 3.42L32.88 3.27L32.67 3.13L32.45 2.99L32.22 2.86L31.98 2.73L31.73 2.61L31.46 2.5L31.19 2.4L30.91 2.31L30.61 2.23L30.31 2.15L30 2.08L29.68 2.03L29.34 1.98L29 1.95L28.66 1.92L28.3 1.91L27.93 1.9L27.56 1.91L27.18 1.93L26.79 1.97Z" fill="#0d0d0c" stroke="none"/><path d="M4.44 22.87L4.39 22.55L4.34 22.25L4.3 21.94L4.28 21.65L4.26 21.36L4.25 21.08L4.25 20.81L4.25 20.55L4.27 20.29L4.29 20.04L4.32 19.79L4.36 19.56L4.4 19.33L4.45 19.11L4.5 18.9L4.56 18.69L4.63 18.5L4.7 18.31L4.78 18.14L4.86 17.97L4.94 17.81L5.03 17.66L5.12 17.52L5.22 17.38L5.32 17.26L5.42 17.15L5.52 17.04L5.63 16.95L5.74 16.86L5.85 16.79L5.96 16.72L6.08 16.66L6.2 16.61L6.32 16.57L6.44 16.54L6.57 16.53L6.7 16.52L6.83 16.52L6.96 16.54L7.1 16.57L7.24 16.61L7.39 16.67L7.53 16.74L7.68 16.83L7.82 16.93L7.97 17.05L8.11 17.19L8.26 17.34L8.39 17.51L8.53 17.69L8.66 17.9L8.79 18.12L8.91 18.36L9.02 18.61L9.21 18.54L9.11 18.27L9 18.01L8.89 17.77L8.78 17.54L8.66 17.33L8.53 17.13L8.4 16.94L8.27 16.77L8.13 16.6L7.98 16.45L7.83 16.32L7.67 16.2L7.51 16.09L7.34 15.99L7.16 15.91L6.98 15.84L6.8 15.78L6.61 15.75L6.42 15.72L6.23 15.71L6.03 15.72L5.83 15.74L5.64 15.78L5.44 15.83L5.24 15.9L5.05 15.99L4.86 16.08L4.67 16.19L4.49 16.32L4.3 16.45L4.13 16.6L3.95 16.77L3.79 16.94L3.62 17.13L3.47 17.33L3.31 17.54L3.17 17.77L3.03 18L2.9 18.25L2.77 18.5L2.66 18.77L2.55 19.05L2.44 19.33L2.35 19.63L2.27 19.94L2.19 20.26L2.13 20.59L2.07 20.92L2.02 21.27L1.99 21.63L1.96 21.99L1.95 22.36L1.95 22.74L1.96 23.13Z" fill="#0d0d0c" stroke="none"/><path d="M10 10C10.55 5.8 7.17 2.97 3.44 2.04C3.78 5.76 5.96 9.58 10 10Z" fill="#f5f6f4" stroke-width="0.72"/><path d="M10 10Q6.96 5.82 3.44 2.04" stroke-width="0.5"/><g stroke-linecap="round"><path d="M9.08 9.09L8.63 9.46" stroke-width="0.28" opacity="0.7"/><path d="M8.78 8.78L8.19 9.26" stroke-width="0.28" opacity="0.7"/><path d="M8.48 8.47L7.76 9.06" stroke-width="0.28" opacity="0.7"/><path d="M8.18 8.16L7.35 8.84" stroke-width="0.28" opacity="0.7"/><path d="M7.88 7.85L6.95 8.61" stroke-width="0.28" opacity="0.7"/><path d="M7.59 7.53L6.57 8.37" stroke-width="0.28" opacity="0.7"/><path d="M7.3 7.21L6.21 8.1" stroke-width="0.28" opacity="0.7"/><path d="M7.02 6.89L5.88 7.82" stroke-width="0.28" opacity="0.7"/><path d="M6.74 6.56L5.57 7.52" stroke-width="0.28" opacity="0.7"/><path d="M6.46 6.23L5.29 7.2" stroke-width="0.28" opacity="0.7"/><path d="M6.19 5.9L5.02 6.86" stroke-width="0.28" opacity="0.7"/><path d="M5.92 5.56L4.79 6.5" stroke-width="0.28" opacity="0.7"/><path d="M5.66 5.22L4.57 6.11" stroke-width="0.28" opacity="0.7"/><path d="M5.4 4.87L4.38 5.71" stroke-width="0.28" opacity="0.7"/><path d="M5.15 4.53L4.21 5.3" stroke-width="0.28" opacity="0.7"/><path d="M4.9 4.18L4.06 4.86" stroke-width="0.28" opacity="0.7"/><path d="M4.65 3.82L3.93 4.41" stroke-width="0.28" opacity="0.7"/><path d="M4.4 3.47L3.81 3.95" stroke-width="0.28" opacity="0.7"/><path d="M4.16 3.11L3.71 3.48" stroke-width="0.28" opacity="0.7"/></g><path d="M13 6.6C16.09 7.62 18.71 5.49 19.95 2.8C17.09 2.52 13.9 3.62 13 6.6Z" fill="#f5f6f4" stroke-width="0.72"/><path d="M13 6.6Q16.59 4.91 19.95 2.8" stroke-width="0.5"/><g stroke-linecap="round"><path d="M13.82 6.04L13.61 5.65" stroke-width="0.28" opacity="0.7"/><path d="M14.1 5.85L13.82 5.34" stroke-width="0.28" opacity="0.7"/><path d="M14.37 5.67L14.03 5.05" stroke-width="0.28" opacity="0.7"/><path d="M14.65 5.49L14.25 4.77" stroke-width="0.28" opacity="0.7"/><path d="M14.93 5.31L14.48 4.5" stroke-width="0.28" opacity="0.7"/><path d="M15.21 5.14L14.72 4.25" stroke-width="0.28" opacity="0.7"/><path d="M15.49 4.97L14.97 4.02" stroke-width="0.28" opacity="0.7"/><path d="M15.78 4.8L15.24 3.81" stroke-width="0.28" opacity="0.7"/><path d="M16.06 4.64L15.51 3.62" stroke-width="0.28" opacity="0.7"/><path d="M16.35 4.48L15.79 3.45" stroke-width="0.28" opacity="0.7"/><path d="M16.64 4.32L16.09 3.3" stroke-width="0.28" opacity="0.7"/><path d="M16.94 4.17L16.39 3.18" stroke-width="0.28" opacity="0.7"/><path d="M17.23 4.02L16.71 3.07" stroke-width="0.28" opacity="0.7"/><path d="M17.53 3.87L17.04 2.99" stroke-width="0.28" opacity="0.7"/><path d="M17.83 3.73L17.38 2.92" stroke-width="0.28" opacity="0.7"/><path d="M18.13 3.59L17.73 2.87" stroke-width="0.28" opacity="0.7"/><path d="M18.43 3.46L18.09 2.83" stroke-width="0.28" opacity="0.7"/><path d="M18.73 3.32L18.45 2.81" stroke-width="0.28" opacity="0.7"/><path d="M19.03 3.19L18.82 2.8" stroke-width="0.28" opacity="0.7"/></g><path d="M6.6 13C9.77 12.29 10.92 9.1 10.6 6.16C8 7.4 5.83 9.98 6.6 13Z" fill="#f5f6f4" stroke-width="0.72"/><path d="M6.6 13Q8.39 9.46 10.6 6.16" stroke-width="0.5"/><g stroke-linecap="round"><path d="M7.02 12.1L6.63 11.87" stroke-width="0.28" opacity="0.7"/><path d="M7.16 11.8L6.65 11.5" stroke-width="0.28" opacity="0.7"/><path d="M7.3 11.5L6.68 11.14" stroke-width="0.28" opacity="0.7"/><path d="M7.44 11.2L6.73 10.78" stroke-width="0.28" opacity="0.7"/><path d="M7.59 10.9L6.79 10.44" stroke-width="0.28" opacity="0.7"/><path d="M7.74 10.61L6.87 10.1" stroke-width="0.28" opacity="0.7"/><path d="M7.89 10.32L6.96 9.77" stroke-width="0.28" opacity="0.7"/><path d="M8.05 10.03L7.08 9.46" stroke-width="0.28" opacity="0.7"/><path d="M8.21 9.74L7.21 9.15" stroke-width="0.28" opacity="0.7"/><path d="M8.38 9.45L7.37 8.86" stroke-width="0.28" opacity="0.7"/><path d="M8.55 9.17L7.55 8.58" stroke-width="0.28" opacity="0.7"/><path d="M8.72 8.89L7.74 8.32" stroke-width="0.28" opacity="0.7"/><path d="M8.89 8.61L7.96 8.06" stroke-width="0.28" opacity="0.7"/><path d="M9.07 8.33L8.2 7.82" stroke-width="0.28" opacity="0.7"/><path d="M9.26 8.05L8.46 7.59" stroke-width="0.28" opacity="0.7"/><path d="M9.44 7.78L8.73 7.36" stroke-width="0.28" opacity="0.7"/><path d="M9.63 7.51L9.02 7.15" stroke-width="0.28" opacity="0.7"/><path d="M9.82 7.24L9.32 6.94" stroke-width="0.28" opacity="0.7"/><path d="M10.01 6.97L9.63 6.74" stroke-width="0.28" opacity="0.7"/></g></g>
<g transform="translate(394 66) scale(-1 -1)"><path d="M26.99 3.1L26.48 3.01L25.98 2.96L25.48 2.93L24.98 2.91L24.49 2.91L24.01 2.91L23.53 2.92L23.05 2.93L22.58 2.96L22.11 2.99L21.65 3.03L21.19 3.07L20.73 3.12L20.28 3.18L19.83 3.24L19.39 3.31L18.95 3.39L18.52 3.48L18.09 3.57L17.67 3.66L17.25 3.76L16.84 3.87L16.43 3.99L16.02 4.11L15.62 4.24L15.23 4.37L14.84 4.51L14.45 4.66L14.07 4.81L13.7 4.97L13.33 5.14L12.96 5.31L12.6 5.48L12.25 5.67L11.9 5.86L11.56 6.05L11.22 6.25L10.89 6.46L10.57 6.67L10.25 6.89L9.93 7.12L9.63 7.35L9.33 7.58L9.03 7.82L8.74 8.07L8.46 8.32L8.18 8.58L7.91 8.84L7.65 9.11L7.4 9.38L7.15 9.66L6.9 9.94L6.67 10.22L6.44 10.51L6.22 10.81L6 11.11L5.8 11.41L5.6 11.72L5.4 12.03L5.22 12.34L5.04 12.66L4.86 12.99L4.7 13.31L4.54 13.64L4.39 13.97L4.25 14.31L4.11 14.64L3.99 14.98L3.86 15.33L3.75 15.67L3.64 16.02L3.54 16.37L3.45 16.72L3.37 17.08L3.29 17.44L3.22 17.8L3.15 18.16L3.1 18.52L3.05 18.88L3.01 19.25L2.97 19.62L2.94 19.98L2.92 20.35L2.91 20.73L2.91 21.1L2.92 21.47L2.93 21.85L2.96 22.23L3.01 22.61L3.1 22.99L3.3 23.01L3.48 22.66L3.62 22.32L3.75 21.97L3.88 21.63L4.01 21.3L4.14 20.97L4.27 20.64L4.4 20.31L4.54 19.99L4.67 19.68L4.81 19.37L4.95 19.06L5.09 18.75L5.24 18.45L5.39 18.16L5.54 17.87L5.69 17.58L5.85 17.29L6.01 17.01L6.17 16.73L6.33 16.46L6.5 16.19L6.67 15.92L6.84 15.66L7.01 15.4L7.19 15.14L7.37 14.89L7.55 14.64L7.74 14.39L7.93 14.14L8.12 13.9L8.31 13.66L8.51 13.43L8.7 13.19L8.91 12.96L9.11 12.73L9.32 12.51L9.53 12.28L9.75 12.06L9.97 11.84L10.19 11.63L10.41 11.41L10.64 11.2L10.87 10.99L11.11 10.78L11.35 10.57L11.59 10.37L11.84 10.17L12.09 9.97L12.35 9.77L12.61 9.57L12.87 9.37L13.14 9.18L13.42 8.99L13.69 8.8L13.98 8.61L14.27 8.42L14.56 8.24L14.86 8.06L15.16 7.87L15.47 7.69L15.79 7.52L16.1 7.34L16.43 7.17L16.76 7L17.1 6.83L17.44 6.66L17.79 6.49L18.14 6.33L18.5 6.17L18.87 6.01L19.24 5.85L19.62 5.7L20 5.55L20.39 5.39L20.79 5.25L21.19 5.1L21.6 4.96L22.01 4.82L22.44 4.68L22.86 4.54L23.3 4.41L23.74 4.27L24.19 4.14L24.64 4.01L25.1 3.88L25.57 3.75L26.04 3.62L26.52 3.48L27.01 3.3Z" fill="#0d0d0c" stroke="none"/><path d="M27.04 4.15L27.86 4.08L28.67 4.01L29.48 3.94L30.28 3.88L31.07 3.81L31.86 3.75L32.64 3.69L33.42 3.63L34.19 3.57L34.96 3.51L35.73 3.45L36.49 3.4L37.25 3.35L38 3.29L38.76 3.24L39.51 3.19L40.26 3.14L41.01 3.1L41.76 3.05L42.51 3.01L43.26 2.96L44.01 2.92L44.76 2.88L45.51 2.84L46.26 2.8L47.02 2.76L47.78 2.72L48.54 2.69L49.3 2.65L50.07 2.62L50.84 2.58L51.61 2.55L52.39 2.52L53.17 2.49L53.96 2.47L54.76 2.44L55.56 2.41L56.37 2.39L57.18 2.37L58 2.35L58 2.25L57.18 2.26L56.36 2.27L55.56 2.28L54.75 2.28L53.96 2.29L53.17 2.29L52.38 2.29L51.61 2.29L50.83 2.29L50.06 2.29L49.29 2.29L48.53 2.29L47.77 2.29L47.01 2.29L46.25 2.28L45.5 2.28L44.74 2.28L43.99 2.28L43.24 2.27L42.49 2.27L41.74 2.27L40.99 2.26L40.24 2.26L39.48 2.26L38.73 2.25L37.97 2.25L37.21 2.25L36.45 2.25L35.68 2.24L34.91 2.24L34.14 2.24L33.37 2.24L32.58 2.24L31.8 2.24L31.01 2.24L30.21 2.24L29.41 2.24L28.6 2.24L27.78 2.25L26.96 2.25Z" fill="#0d0d0c" stroke="none"/><path d="M27.21 4.43L27.52 4.36L27.82 4.29L28.12 4.24L28.41 4.19L28.7 4.16L28.98 4.13L29.25 4.11L29.51 4.1L29.77 4.1L30.02 4.11L30.27 4.12L30.51 4.15L30.74 4.18L30.96 4.21L31.17 4.25L31.38 4.3L31.58 4.36L31.77 4.42L31.95 4.48L32.12 4.55L32.29 4.63L32.44 4.71L32.59 4.79L32.73 4.88L32.86 4.97L32.98 5.06L33.09 5.16L33.19 5.26L33.28 5.36L33.36 5.47L33.44 5.58L33.5 5.69L33.56 5.81L33.6 5.93L33.64 6.05L33.66 6.17L33.68 6.3L33.68 6.43L33.67 6.57L33.65 6.71L33.62 6.85L33.57 7L33.51 7.15L33.43 7.3L33.34 7.45L33.22 7.6L33.1 7.76L32.95 7.91L32.79 8.06L32.62 8.2L32.42 8.35L32.21 8.49L31.98 8.62L31.73 8.75L31.81 8.93L32.08 8.81L32.32 8.69L32.56 8.57L32.78 8.44L32.99 8.31L33.18 8.17L33.36 8.03L33.53 7.88L33.68 7.73L33.82 7.58L33.95 7.42L34.06 7.25L34.16 7.08L34.25 6.91L34.32 6.73L34.38 6.55L34.42 6.36L34.45 6.17L34.46 5.98L34.45 5.78L34.44 5.59L34.4 5.39L34.35 5.2L34.29 5.01L34.21 4.82L34.11 4.63L34.01 4.44L33.88 4.26L33.75 4.08L33.6 3.91L33.44 3.74L33.27 3.58L33.08 3.42L32.88 3.27L32.67 3.13L32.45 2.99L32.22 2.86L31.98 2.73L31.73 2.61L31.46 2.5L31.19 2.4L30.91 2.31L30.61 2.23L30.31 2.15L30 2.08L29.68 2.03L29.34 1.98L29 1.95L28.66 1.92L28.3 1.91L27.93 1.9L27.56 1.91L27.18 1.93L26.79 1.97Z" fill="#0d0d0c" stroke="none"/><path d="M4.44 22.87L4.39 22.55L4.34 22.25L4.3 21.94L4.28 21.65L4.26 21.36L4.25 21.08L4.25 20.81L4.25 20.55L4.27 20.29L4.29 20.04L4.32 19.79L4.36 19.56L4.4 19.33L4.45 19.11L4.5 18.9L4.56 18.69L4.63 18.5L4.7 18.31L4.78 18.14L4.86 17.97L4.94 17.81L5.03 17.66L5.12 17.52L5.22 17.38L5.32 17.26L5.42 17.15L5.52 17.04L5.63 16.95L5.74 16.86L5.85 16.79L5.96 16.72L6.08 16.66L6.2 16.61L6.32 16.57L6.44 16.54L6.57 16.53L6.7 16.52L6.83 16.52L6.96 16.54L7.1 16.57L7.24 16.61L7.39 16.67L7.53 16.74L7.68 16.83L7.82 16.93L7.97 17.05L8.11 17.19L8.26 17.34L8.39 17.51L8.53 17.69L8.66 17.9L8.79 18.12L8.91 18.36L9.02 18.61L9.21 18.54L9.11 18.27L9 18.01L8.89 17.77L8.78 17.54L8.66 17.33L8.53 17.13L8.4 16.94L8.27 16.77L8.13 16.6L7.98 16.45L7.83 16.32L7.67 16.2L7.51 16.09L7.34 15.99L7.16 15.91L6.98 15.84L6.8 15.78L6.61 15.75L6.42 15.72L6.23 15.71L6.03 15.72L5.83 15.74L5.64 15.78L5.44 15.83L5.24 15.9L5.05 15.99L4.86 16.08L4.67 16.19L4.49 16.32L4.3 16.45L4.13 16.6L3.95 16.77L3.79 16.94L3.62 17.13L3.47 17.33L3.31 17.54L3.17 17.77L3.03 18L2.9 18.25L2.77 18.5L2.66 18.77L2.55 19.05L2.44 19.33L2.35 19.63L2.27 19.94L2.19 20.26L2.13 20.59L2.07 20.92L2.02 21.27L1.99 21.63L1.96 21.99L1.95 22.36L1.95 22.74L1.96 23.13Z" fill="#0d0d0c" stroke="none"/><path d="M10 10C10.55 5.8 7.17 2.97 3.44 2.04C3.78 5.76 5.96 9.58 10 10Z" fill="#f5f6f4" stroke-width="0.72"/><path d="M10 10Q6.96 5.82 3.44 2.04" stroke-width="0.5"/><g stroke-linecap="round"><path d="M9.08 9.09L8.63 9.46" stroke-width="0.28" opacity="0.7"/><path d="M8.78 8.78L8.19 9.26" stroke-width="0.28" opacity="0.7"/><path d="M8.48 8.47L7.76 9.06" stroke-width="0.28" opacity="0.7"/><path d="M8.18 8.16L7.35 8.84" stroke-width="0.28" opacity="0.7"/><path d="M7.88 7.85L6.95 8.61" stroke-width="0.28" opacity="0.7"/><path d="M7.59 7.53L6.57 8.37" stroke-width="0.28" opacity="0.7"/><path d="M7.3 7.21L6.21 8.1" stroke-width="0.28" opacity="0.7"/><path d="M7.02 6.89L5.88 7.82" stroke-width="0.28" opacity="0.7"/><path d="M6.74 6.56L5.57 7.52" stroke-width="0.28" opacity="0.7"/><path d="M6.46 6.23L5.29 7.2" stroke-width="0.28" opacity="0.7"/><path d="M6.19 5.9L5.02 6.86" stroke-width="0.28" opacity="0.7"/><path d="M5.92 5.56L4.79 6.5" stroke-width="0.28" opacity="0.7"/><path d="M5.66 5.22L4.57 6.11" stroke-width="0.28" opacity="0.7"/><path d="M5.4 4.87L4.38 5.71" stroke-width="0.28" opacity="0.7"/><path d="M5.15 4.53L4.21 5.3" stroke-width="0.28" opacity="0.7"/><path d="M4.9 4.18L4.06 4.86" stroke-width="0.28" opacity="0.7"/><path d="M4.65 3.82L3.93 4.41" stroke-width="0.28" opacity="0.7"/><path d="M4.4 3.47L3.81 3.95" stroke-width="0.28" opacity="0.7"/><path d="M4.16 3.11L3.71 3.48" stroke-width="0.28" opacity="0.7"/></g><path d="M13 6.6C16.09 7.62 18.71 5.49 19.95 2.8C17.09 2.52 13.9 3.62 13 6.6Z" fill="#f5f6f4" stroke-width="0.72"/><path d="M13 6.6Q16.59 4.91 19.95 2.8" stroke-width="0.5"/><g stroke-linecap="round"><path d="M13.82 6.04L13.61 5.65" stroke-width="0.28" opacity="0.7"/><path d="M14.1 5.85L13.82 5.34" stroke-width="0.28" opacity="0.7"/><path d="M14.37 5.67L14.03 5.05" stroke-width="0.28" opacity="0.7"/><path d="M14.65 5.49L14.25 4.77" stroke-width="0.28" opacity="0.7"/><path d="M14.93 5.31L14.48 4.5" stroke-width="0.28" opacity="0.7"/><path d="M15.21 5.14L14.72 4.25" stroke-width="0.28" opacity="0.7"/><path d="M15.49 4.97L14.97 4.02" stroke-width="0.28" opacity="0.7"/><path d="M15.78 4.8L15.24 3.81" stroke-width="0.28" opacity="0.7"/><path d="M16.06 4.64L15.51 3.62" stroke-width="0.28" opacity="0.7"/><path d="M16.35 4.48L15.79 3.45" stroke-width="0.28" opacity="0.7"/><path d="M16.64 4.32L16.09 3.3" stroke-width="0.28" opacity="0.7"/><path d="M16.94 4.17L16.39 3.18" stroke-width="0.28" opacity="0.7"/><path d="M17.23 4.02L16.71 3.07" stroke-width="0.28" opacity="0.7"/><path d="M17.53 3.87L17.04 2.99" stroke-width="0.28" opacity="0.7"/><path d="M17.83 3.73L17.38 2.92" stroke-width="0.28" opacity="0.7"/><path d="M18.13 3.59L17.73 2.87" stroke-width="0.28" opacity="0.7"/><path d="M18.43 3.46L18.09 2.83" stroke-width="0.28" opacity="0.7"/><path d="M18.73 3.32L18.45 2.81" stroke-width="0.28" opacity="0.7"/><path d="M19.03 3.19L18.82 2.8" stroke-width="0.28" opacity="0.7"/></g><path d="M6.6 13C9.77 12.29 10.92 9.1 10.6 6.16C8 7.4 5.83 9.98 6.6 13Z" fill="#f5f6f4" stroke-width="0.72"/><path d="M6.6 13Q8.39 9.46 10.6 6.16" stroke-width="0.5"/><g stroke-linecap="round"><path d="M7.02 12.1L6.63 11.87" stroke-width="0.28" opacity="0.7"/><path d="M7.16 11.8L6.65 11.5" stroke-width="0.28" opacity="0.7"/><path d="M7.3 11.5L6.68 11.14" stroke-width="0.28" opacity="0.7"/><path d="M7.44 11.2L6.73 10.78" stroke-width="0.28" opacity="0.7"/><path d="M7.59 10.9L6.79 10.44" stroke-width="0.28" opacity="0.7"/><path d="M7.74 10.61L6.87 10.1" stroke-width="0.28" opacity="0.7"/><path d="M7.89 10.32L6.96 9.77" stroke-width="0.28" opacity="0.7"/><path d="M8.05 10.03L7.08 9.46" stroke-width="0.28" opacity="0.7"/><path d="M8.21 9.74L7.21 9.15" stroke-width="0.28" opacity="0.7"/><path d="M8.38 9.45L7.37 8.86" stroke-width="0.28" opacity="0.7"/><path d="M8.55 9.17L7.55 8.58" stroke-width="0.28" opacity="0.7"/><path d="M8.72 8.89L7.74 8.32" stroke-width="0.28" opacity="0.7"/><path d="M8.89 8.61L7.96 8.06" stroke-width="0.28" opacity="0.7"/><path d="M9.07 8.33L8.2 7.82" stroke-width="0.28" opacity="0.7"/><path d="M9.26 8.05L8.46 7.59" stroke-width="0.28" opacity="0.7"/><path d="M9.44 7.78L8.73 7.36" stroke-width="0.28" opacity="0.7"/><path d="M9.63 7.51L9.02 7.15" stroke-width="0.28" opacity="0.7"/><path d="M9.82 7.24L9.32 6.94" stroke-width="0.28" opacity="0.7"/><path d="M10.01 6.97L9.63 6.74" stroke-width="0.28" opacity="0.7"/></g></g>
<g transform="translate(220 12)">
<path d="M0 5.6 L2.6 0 L0 -5.6 L-2.6 0 Z" fill="#0d0d0c" stroke="none"/>
<path d="M-4.23 -0.87L-4.66 -0.73L-5.1 -0.59L-5.54 -0.46L-5.98 -0.34L-6.43 -0.23L-6.89 -0.12L-7.34 -0.01L-7.81 0.08L-8.27 0.17L-8.74 0.26L-9.22 0.34L-9.69 0.41L-10.17 0.47L-10.66 0.53L-11.14 0.58L-11.63 0.63L-12.13 0.67L-12.62 0.7L-13.12 0.73L-13.62 0.75L-14.13 0.77L-14.63 0.78L-15.14 0.78L-15.65 0.78L-16.16 0.77L-16.68 0.76L-17.19 0.74L-17.71 0.71L-18.23 0.68L-18.75 0.64L-19.27 0.6L-19.79 0.55L-20.31 0.5L-20.84 0.44L-21.36 0.37L-21.89 0.3L-22.41 0.22L-22.94 0.14L-23.46 0.05L-23.99 -0.05L-24.01 0.05L-23.49 0.16L-22.96 0.26L-22.44 0.37L-21.91 0.47L-21.39 0.56L-20.87 0.66L-20.35 0.74L-19.83 0.83L-19.3 0.91L-18.78 0.99L-18.26 1.06L-17.75 1.13L-17.23 1.19L-16.71 1.25L-16.19 1.3L-15.68 1.35L-15.16 1.39L-14.65 1.43L-14.14 1.47L-13.63 1.5L-13.12 1.52L-12.61 1.54L-12.1 1.55L-11.6 1.56L-11.09 1.56L-10.59 1.56L-10.09 1.55L-9.59 1.53L-9.1 1.51L-8.6 1.49L-8.11 1.45L-7.62 1.41L-7.13 1.37L-6.64 1.32L-6.16 1.26L-5.67 1.19L-5.19 1.12L-4.72 1.05L-4.24 0.96L-3.77 0.87Z" fill="#0d0d0c" stroke="none"/>
<path d="M3.77 0.87L4.24 0.96L4.72 1.05L5.19 1.12L5.67 1.19L6.16 1.26L6.64 1.32L7.13 1.37L7.62 1.41L8.11 1.45L8.6 1.49L9.1 1.51L9.59 1.53L10.09 1.55L10.59 1.56L11.09 1.56L11.6 1.56L12.1 1.55L12.61 1.54L13.12 1.52L13.63 1.5L14.14 1.47L14.65 1.43L15.16 1.39L15.68 1.35L16.19 1.3L16.71 1.25L17.23 1.19L17.75 1.13L18.26 1.06L18.78 0.99L19.3 0.91L19.83 0.83L20.35 0.74L20.87 0.66L21.39 0.56L21.91 0.47L22.44 0.37L22.96 0.26L23.49 0.16L24.01 0.05L23.99 -0.05L23.46 0.05L22.94 0.14L22.41 0.22L21.89 0.3L21.36 0.37L20.84 0.44L20.31 0.5L19.79 0.55L19.27 0.6L18.75 0.64L18.23 0.68L17.71 0.71L17.19 0.74L16.68 0.76L16.16 0.77L15.65 0.78L15.14 0.78L14.63 0.78L14.13 0.77L13.62 0.75L13.12 0.73L12.62 0.7L12.13 0.67L11.63 0.63L11.14 0.58L10.66 0.53L10.17 0.47L9.69 0.41L9.22 0.34L8.74 0.26L8.27 0.17L7.81 0.08L7.34 -0.01L6.89 -0.12L6.43 -0.23L5.98 -0.34L5.54 -0.46L5.1 -0.59L4.66 -0.73L4.23 -0.87Z" fill="#0d0d0c" stroke="none"/>
</g>
<g transform="translate(220 66)">
<path d="M0 -5.6 L2.6 0 L0 5.6 L-2.6 0 Z" fill="#0d0d0c" stroke="none"/>
<path d="M-3.77 -0.87L-4.24 -0.96L-4.72 -1.05L-5.19 -1.12L-5.67 -1.19L-6.16 -1.26L-6.64 -1.32L-7.13 -1.37L-7.62 -1.41L-8.11 -1.45L-8.6 -1.49L-9.1 -1.51L-9.59 -1.53L-10.09 -1.55L-10.59 -1.56L-11.09 -1.56L-11.6 -1.56L-12.1 -1.55L-12.61 -1.54L-13.12 -1.52L-13.63 -1.5L-14.14 -1.47L-14.65 -1.43L-15.16 -1.39L-15.68 -1.35L-16.19 -1.3L-16.71 -1.25L-17.23 -1.19L-17.75 -1.13L-18.26 -1.06L-18.78 -0.99L-19.3 -0.91L-19.83 -0.83L-20.35 -0.74L-20.87 -0.66L-21.39 -0.56L-21.91 -0.47L-22.44 -0.37L-22.96 -0.26L-23.49 -0.16L-24.01 -0.05L-23.99 0.05L-23.46 -0.05L-22.94 -0.14L-22.41 -0.22L-21.89 -0.3L-21.36 -0.37L-20.84 -0.44L-20.31 -0.5L-19.79 -0.55L-19.27 -0.6L-18.75 -0.64L-18.23 -0.68L-17.71 -0.71L-17.19 -0.74L-16.68 -0.76L-16.16 -0.77L-15.65 -0.78L-15.14 -0.78L-14.63 -0.78L-14.13 -0.77L-13.62 -0.75L-13.12 -0.73L-12.62 -0.7L-12.13 -0.67L-11.63 -0.63L-11.14 -0.58L-10.66 -0.53L-10.17 -0.47L-9.69 -0.41L-9.22 -0.34L-8.74 -0.26L-8.27 -0.17L-7.81 -0.08L-7.34 0.01L-6.89 0.12L-6.43 0.23L-5.98 0.34L-5.54 0.46L-5.1 0.59L-4.66 0.73L-4.23 0.87Z" fill="#0d0d0c" stroke="none"/>
<path d="M4.23 0.87L4.66 0.73L5.1 0.59L5.54 0.46L5.98 0.34L6.43 0.23L6.89 0.12L7.34 0.01L7.81 -0.08L8.27 -0.17L8.74 -0.26L9.22 -0.34L9.69 -0.41L10.17 -0.47L10.66 -0.53L11.14 -0.58L11.63 -0.63L12.13 -0.67L12.62 -0.7L13.12 -0.73L13.62 -0.75L14.13 -0.77L14.63 -0.78L15.14 -0.78L15.65 -0.78L16.16 -0.77L16.68 -0.76L17.19 -0.74L17.71 -0.71L18.23 -0.68L18.75 -0.64L19.27 -0.6L19.79 -0.55L20.31 -0.5L20.84 -0.44L21.36 -0.37L21.89 -0.3L22.41 -0.22L22.94 -0.14L23.46 -0.05L23.99 0.05L24.01 -0.05L23.49 -0.16L22.96 -0.26L22.44 -0.37L21.91 -0.47L21.39 -0.56L20.87 -0.66L20.35 -0.74L19.83 -0.83L19.3 -0.91L18.78 -0.99L18.26 -1.06L17.75 -1.13L17.23 -1.19L16.71 -1.25L16.19 -1.3L15.68 -1.35L15.16 -1.39L14.65 -1.43L14.14 -1.47L13.63 -1.5L13.12 -1.52L12.61 -1.54L12.1 -1.55L11.6 -1.56L11.09 -1.56L10.59 -1.56L10.09 -1.55L9.59 -1.53L9.1 -1.51L8.6 -1.49L8.11 -1.45L7.62 -1.41L7.13 -1.37L6.64 -1.32L6.16 -1.26L5.67 -1.19L5.19 -1.12L4.72 -1.05L4.24 -0.96L3.77 -0.87Z" fill="#0d0d0c" stroke="none"/>
</g>
</g></svg>