<svg xmlns="http://www.w3.org/2000/svg" viewBox="0 0 1600 1000" width="1600" height="1000" preserveAspectRatio="xMidYMax slice">
  <defs>
    <linearGradient id="sky" x1="0" y1="0" x2="0" y2="1">
      <stop offset="0" stop-color="#0742B6"/>
      <stop offset="0.30" stop-color="#1467D8"/>
      <stop offset="0.66" stop-color="#4A9AEB"/>
      <stop offset="1" stop-color="#8FC6F1"/>
    </linearGradient>

    <radialGradient id="core" cx="0.585" cy="0.24" r="0.40">
      <stop offset="0" stop-color="#FFFFFF" stop-opacity="0.95"/>
      <stop offset="0.34" stop-color="#EAF6FF" stop-opacity="0.48"/>
      <stop offset="1" stop-color="#B7DBF7" stop-opacity="0"/>
    </radialGradient>

    <linearGradient id="shaft" x1="0" y1="0" x2="1" y2="0">
      <stop offset="0" stop-color="#FFFFFF" stop-opacity="0"/>
      <stop offset="0.44" stop-color="#FFFFFF" stop-opacity="0.5"/>
      <stop offset="0.5" stop-color="#FFFFFF" stop-opacity="0.92"/>
      <stop offset="0.56" stop-color="#FFFFFF" stop-opacity="0.5"/>
      <stop offset="1" stop-color="#FFFFFF" stop-opacity="0"/>
    </linearGradient>
    <linearGradient id="shaftFade" x1="0" y1="0" x2="0" y2="1">
      <stop offset="0" stop-color="#FFFFFF" stop-opacity="1"/>
      <stop offset="0.7" stop-color="#FFFFFF" stop-opacity="0.5"/>
      <stop offset="1" stop-color="#FFFFFF" stop-opacity="0"/>
    </linearGradient>
    <mask id="shaftMask"><rect width="1600" height="1000" fill="url(#shaftFade)"/></mask>

    <!-- BIG cumulus masses: low frequency, hard threshold -->
    <filter id="bigShadow" x="-30%" y="-30%" width="160%" height="160%" color-interpolation-filters="sRGB">
      <feTurbulence type="fractalNoise" baseFrequency="0.0016 0.0034" numOctaves="5" seed="23" result="n"/>
      <feColorMatrix in="n" type="matrix" result="w"
        values="0 0 0 0 0.42  0 0 0 0 0.60  0 0 0 0 0.81  5.2 0 0 0 -2.28"/>
      <feGaussianBlur in="w" stdDeviation="5"/>
    </filter>
    <filter id="bigLit" x="-30%" y="-30%" width="160%" height="160%" color-interpolation-filters="sRGB">
      <feTurbulence type="fractalNoise" baseFrequency="0.0016 0.0034" numOctaves="5" seed="23" result="n"/>
      <feColorMatrix in="n" type="matrix" result="w"
        values="0 0 0 0 1  0 0 0 0 1  0 0 0 0 1  5.6 0 0 0 -2.62"/>
      <feGaussianBlur in="w" stdDeviation="2.6"/>
    </filter>

    <!-- second mass at a different scale, so the field never reads as one texture -->
    <filter id="midShadow" x="-30%" y="-30%" width="160%" height="160%" color-interpolation-filters="sRGB">
      <feTurbulence type="fractalNoise" baseFrequency="0.0034 0.0062" numOctaves="5" seed="88" result="n"/>
      <feColorMatrix in="n" type="matrix" result="w"
        values="0 0 0 0 0.48  0 0 0 0 0.65  0 0 0 0 0.84  5 0 0 0 -2.44"/>
      <feGaussianBlur in="w" stdDeviation="3.4"/>
    </filter>
    <filter id="midLit" x="-30%" y="-30%" width="160%" height="160%" color-interpolation-filters="sRGB">
      <feTurbulence type="fractalNoise" baseFrequency="0.0034 0.0062" numOctaves="5" seed="88" result="n"/>
      <feColorMatrix in="n" type="matrix" result="w"
        values="0 0 0 0 1  0 0 0 0 1  0 0 0 0 1  5.4 0 0 0 -2.74"/>
      <feGaussianBlur in="w" stdDeviation="1.8"/>
    </filter>

    <!-- open blue through the middle, banked cloud at the frame edges -->
    <radialGradient id="partG" cx="0.55" cy="0.34" r="0.72">
      <stop offset="0" stop-color="#000000"/>
      <stop offset="0.34" stop-color="#0D0D0D"/>
      <stop offset="0.62" stop-color="#8C8C8C"/>
      <stop offset="0.86" stop-color="#FFFFFF"/>
      <stop offset="1" stop-color="#FFFFFF"/>
    </radialGradient>
    <mask id="part"><rect width="1600" height="1000" fill="url(#partG)"/></mask>

    <linearGradient id="lowG" x1="0" y1="0" x2="0" y2="1">
      <stop offset="0" stop-color="#000000"/>
      <stop offset="0.55" stop-color="#4D4D4D"/>
      <stop offset="1" stop-color="#FFFFFF"/>
    </linearGradient>
    <mask id="low"><rect width="1600" height="1000" fill="url(#lowG)"/></mask>

    <linearGradient id="baseHaze" x1="0" y1="0" x2="0" y2="1">
      <stop offset="0" stop-color="#CFE6F8" stop-opacity="0"/>
      <stop offset="1" stop-color="#E6F2FB" stop-opacity="0.7"/>
    </linearGradient>

    <!-- the instrument: dark against the light, lit along its sunward edge -->
    <linearGradient id="plate" x1="0" y1="0" x2="1" y2="0.6">
      <stop offset="0" stop-color="#1B2530"/>
      <stop offset="0.42" stop-color="#0A0D11"/>
      <stop offset="1" stop-color="#05070A"/>
    </linearGradient>
    <linearGradient id="col" x1="0" y1="0" x2="1" y2="0">
      <stop offset="0" stop-color="#243040"/>
      <stop offset="0.3" stop-color="#0B0F14"/>
      <stop offset="1" stop-color="#04060A"/>
    </linearGradient>
    <linearGradient id="gno" x1="0" y1="1" x2="1" y2="0">
      <stop offset="0" stop-color="#0A0E13"/>
      <stop offset="1" stop-color="#182230"/>
    </linearGradient>
  </defs>

  <rect width="1600" height="1000" fill="url(#sky)"/>

  <g mask="url(#shaftMask)">
    <rect x="792" y="0" width="220" height="1000" fill="url(#shaft)"/>
    <g opacity="0.42">
      <polygon points="936,60 990,1000 880,1000" fill="#FFFFFF" opacity="0.4"/>
      <polygon points="936,60 1128,1000 1030,1000" fill="#FFFFFF" opacity="0.15"/>
      <polygon points="936,60 760,1000 848,1000" fill="#FFFFFF" opacity="0.15"/>
      <polygon points="936,60 1290,1000 1190,1000" fill="#FFFFFF" opacity="0.08"/>
      <polygon points="936,60 620,1000 712,1000" fill="#FFFFFF" opacity="0.08"/>
    </g>
  </g>

  <g mask="url(#part)">
    <g transform="translate(0 34)"><rect x="-240" y="-180" width="2080" height="1300" filter="url(#bigShadow)"/></g>
    <rect x="-240" y="-180" width="2080" height="1300" filter="url(#bigLit)"/>
  </g>
  <g mask="url(#low)" opacity="0.9">
    <g mask="url(#part)">
      <g transform="translate(0 20)"><rect x="-240" y="60" width="2080" height="1060" filter="url(#midShadow)"/></g>
      <rect x="-240" y="60" width="2080" height="1060" filter="url(#midLit)"/>
    </g>
  </g>

  <rect width="1600" height="1000" fill="url(#core)"/>

  <rect y="800" width="1600" height="200" fill="url(#baseHaze)"/>

  <!-- monumental sundial standing in the light, cropped by the frame -->
  <g transform="translate(1128 660)">
    <!-- pedestal -->
    <path d="M-56 34 L56 34 L86 400 L-86 400 Z" fill="url(#col)"/>
    <path d="M-56 34 L-46 34 L-72 400 L-86 400 Z" fill="#5E7FA8" opacity="0.5"/>
    <rect x="-92" y="16" width="184" height="26" rx="3" fill="#0A0E13"/>
    <rect x="-92" y="16" width="184" height="5" fill="#8FB3D8" opacity="0.45"/>

    <!-- dial plate, seen from slightly below -->
    <ellipse cx="0" cy="0" rx="252" ry="70" fill="url(#plate)"/>
    <ellipse cx="0" cy="-8" rx="252" ry="70" fill="#0B1017"/>
    <path d="M-252 -8 A252 70 0 0 1 0 -78 L0 -70 A244 62 0 0 0 -244 -8 Z" fill="#A9C8E8" opacity="0.55"/>
    <ellipse cx="0" cy="-8" rx="252" ry="70" fill="none" stroke="#9FC0E4" stroke-opacity="0.35" stroke-width="2"/>
    <ellipse cx="0" cy="-8" rx="196" ry="54" fill="none" stroke="#9FC0E4" stroke-opacity="0.18" stroke-width="1.5"/>

    <!-- hour marks catching the light -->
    <g stroke="#BFD8F0" stroke-opacity="0.4" stroke-width="2">
      <line x1="-244" y1="-8" x2="-192" y2="-8"/>
      <line x1="-212" y1="-40" x2="-166" y2="-34"/>
      <line x1="-140" y1="-62" x2="-108" y2="-52"/>
      <line x1="-40" y1="-76" x2="-30" y2="-62"/>
      <line x1="60" y1="-74" x2="46" y2="-60"/>
      <line x1="158" y1="-58" x2="122" y2="-48"/>
      <line x1="222" y1="-32" x2="176" y2="-28"/>
      <line x1="244" y1="-8" x2="192" y2="-8"/>
    </g>

    <!-- gnomon -->
    <path d="M-8 -18 L-8 -300 L150 -14 Z" fill="url(#gno)"/>
    <path d="M-8 -18 L-8 -300 L4 -286 L4 -16 Z" fill="#8FB3D8" opacity="0.5"/>
    <path d="M-8 -300 L150 -14 L138 -14 L-8 -278 Z" fill="#C3DBF2" opacity="0.28"/>

    <!-- the shadow it throws across the plate -->
    <path d="M-8 -14 L-236 -30 L-232 -6 Z" fill="#050A10" opacity="0.55"/>
  </g>
</svg>
